<?xml version="1.0" encoding="utf-8"?>
<!-- Generator: Adobe Illustrator 22.0.1, SVG Export Plug-In . SVG Version: 6.00 Build 0)  -->
<svg version="1.1" id="Layer_1" xmlns="http://www.w3.org/2000/svg" xmlns:xlink="http://www.w3.org/1999/xlink" x="0px" y="0px"
	 viewBox="0 0 30 30" style="enable-background:new 0 0 30 30;" xml:space="preserve">
<style type="text/css">
	.st0{fill:#F4F4F4;}
</style>
<path class="st0" d="M7.2,5.1c-1.8,0-3,1-3,2.6h1.6c0-0.7,0.6-1.2,1.4-1.2C8,6.5,8.5,7,8.5,7.6c0,0.7-0.5,1.1-1.3,1.1h-1V10h1
	c0.9,0,1.5,0.4,1.5,1.2c0,0.7-0.6,1.2-1.5,1.2c-0.9,0-1.5-0.4-1.5-1.1H4c0.1,1.6,1.3,2.6,3.2,2.6c1.9,0,3.3-1.1,3.3-2.5
	c0-1.1-0.7-1.8-1.8-2V9.3c0.9-0.2,1.5-0.9,1.5-1.9C10.2,6.1,8.9,5.1,7.2,5.1z M15.2,5.1c-2.2,0-3.5,1.7-3.5,4.4
	c0,1.1,0.2,2.1,0.7,2.8c0.6,1,1.5,1.5,2.7,1.5c1.9,0,3.2-1.2,3.2-2.9c0-1.6-1.2-2.8-2.7-2.8c-1,0-1.7,0.4-2.1,1.2h-0.1
	c0-1.7,0.7-2.8,1.8-2.8c0.7,0,1.2,0.3,1.3,0.9h1.7C18,6.1,16.7,5.1,15.2,5.1z M22.8,5.1c-2,0-3.3,1.6-3.3,4.3c0,2.8,1.2,4.4,3.3,4.4
	S26,12.2,26,9.5C26,6.7,24.8,5.1,22.8,5.1z M22.8,6.6c0.9,0,1.5,1,1.5,2.9c0,1.9-0.6,3-1.5,3c-0.9,0-1.5-1-1.5-3
	C21.2,7.6,21.8,6.6,22.8,6.6z M15.1,9.5c0.9,0,1.5,0.6,1.5,1.5c0,0.8-0.7,1.5-1.5,1.5c-0.8,0-1.5-0.6-1.5-1.5
	C13.6,10.1,14.3,9.5,15.1,9.5z M3,15c0,0-2,0.5-2,3c0,2.8,3,5,11,5v1.3c0,0.6,0.7,0.9,1.1,0.5l3-2.7c0.4-0.4,0.4-1,0-1.4l-3-2.7
	c-0.4-0.4-1.1-0.1-1.1,0.5V20c-6.8,0-9.5-1.6-9.5-3c0-0.7,0.5-1,0.5-1V15z M27,15v1c0,0,0.5,0.3,0.5,1c0,1.4-2.7,3-9.5,3v3
	c8,0,11-2.2,11-5C29,15.5,27,15,27,15z"/>
</svg>
