<svg xmlns="http://www.w3.org/2000/svg" xmlns:xlink="http://www.w3.org/1999/xlink" viewBox="0 0 26 26" fill="#FFFFFF">
  <path d="M12.8125 0C12.738281 0.0117188 12.644531 0.0429688 12.59375 0.09375C12.492188 0.195313 9.914063 2.601563 8.3125 5C8.210938 5.199219 8.210938 5.394531 8.3125 5.59375C8.414063 5.894531 8.613281 6 8.8125 6L11 6L11 11L6 11L6 8.8125C6 8.613281 5.886719 8.414063 5.6875 8.3125C5.488281 8.210938 5.199219 8.210938 5 8.3125C2.601563 9.914063 0.195313 12.492188 0.09375 12.59375C0.09375 12.695313 0 12.898438 0 13C0 13.101563 -0.0078125 13.304688 0.09375 13.40625C0.195313 13.507813 2.5 16.085938 5 17.6875C5.199219 17.789063 5.488281 17.789063 5.6875 17.6875C5.886719 17.585938 6 17.386719 6 17.1875L6 15L11 15L11 20L8.8125 20C8.613281 20 8.414063 20.113281 8.3125 20.3125C8.210938 20.511719 8.210938 20.707031 8.3125 20.90625C9.914063 23.304688 12.492188 25.710938 12.59375 25.8125C12.695313 25.914063 12.800781 25.90625 13 25.90625C13.199219 25.90625 13.304688 25.914063 13.40625 25.8125C13.507813 25.710938 16.085938 23.40625 17.6875 20.90625C17.789063 20.804688 17.789063 20.511719 17.6875 20.3125C17.585938 20.113281 17.386719 20 17.1875 20L15 20L15 15L20 15L20 17.1875C20 17.386719 20.113281 17.585938 20.3125 17.6875C20.511719 17.789063 20.707031 17.789063 20.90625 17.6875C23.304688 16.085938 25.710938 13.507813 25.8125 13.40625C25.914063 13.304688 25.90625 13.199219 25.90625 13C25.90625 12.800781 25.914063 12.695313 25.8125 12.59375C25.710938 12.492188 23.40625 9.914063 20.90625 8.3125C20.707031 8.210938 20.511719 8.210938 20.3125 8.3125C20.113281 8.414063 20 8.613281 20 8.8125L20 11L15 11L15 6L17.1875 6C17.386719 6 17.585938 5.886719 17.6875 5.6875C17.789063 5.488281 17.789063 5.292969 17.6875 5.09375C16.085938 2.695313 13.507813 0.289063 13.40625 0.1875C13.304688 0.0859375 13.101563 0 13 0C12.949219 0 12.886719 -0.0117188 12.8125 0Z" fill="#FFFFFF" />
</svg>